<mxfile host="app.diagrams.net" modified="2023-10-18T09:27:49.024Z" agent="Mozilla/5.0 (Windows NT 10.0; Win64; x64) AppleWebKit/537.36 (KHTML, like Gecko) Chrome/118.0.0.0 Safari/537.36" etag="3fgHYY3_GVIcDw1Bsv0Q" version="22.0.4" type="device">
  <diagram name="1 oldal" id="AQIEn34jIy1BkMUivAL6">
    <mxGraphModel dx="875" dy="445" grid="1" gridSize="10" guides="1" tooltips="1" connect="1" arrows="1" fold="1" page="1" pageScale="1" pageWidth="827" pageHeight="1169" math="0" shadow="0">
      <root>
        <mxCell id="0" />
        <mxCell id="1" parent="0" />
        <mxCell id="ckT-fIOzFa40TL3dtKwB-10" style="rounded=0;orthogonalLoop=1;jettySize=auto;html=1;exitX=0;exitY=1;exitDx=0;exitDy=0;endArrow=none;endFill=0;" edge="1" parent="1" source="ckT-fIOzFa40TL3dtKwB-1" target="ckT-fIOzFa40TL3dtKwB-3">
          <mxGeometry relative="1" as="geometry" />
        </mxCell>
        <mxCell id="ckT-fIOzFa40TL3dtKwB-11" style="rounded=0;orthogonalLoop=1;jettySize=auto;html=1;exitX=1;exitY=1;exitDx=0;exitDy=0;entryX=0.5;entryY=0;entryDx=0;entryDy=0;endArrow=none;endFill=0;" edge="1" parent="1" source="ckT-fIOzFa40TL3dtKwB-1" target="ckT-fIOzFa40TL3dtKwB-4">
          <mxGeometry relative="1" as="geometry" />
        </mxCell>
        <mxCell id="ckT-fIOzFa40TL3dtKwB-12" style="rounded=0;orthogonalLoop=1;jettySize=auto;html=1;exitX=1;exitY=0.5;exitDx=0;exitDy=0;entryX=0.5;entryY=0;entryDx=0;entryDy=0;endArrow=none;endFill=0;" edge="1" parent="1" source="ckT-fIOzFa40TL3dtKwB-1" target="ckT-fIOzFa40TL3dtKwB-6">
          <mxGeometry relative="1" as="geometry" />
        </mxCell>
        <mxCell id="ckT-fIOzFa40TL3dtKwB-25" style="rounded=0;orthogonalLoop=1;jettySize=auto;html=1;exitX=0;exitY=0.5;exitDx=0;exitDy=0;entryX=0.5;entryY=0;entryDx=0;entryDy=0;endArrow=none;endFill=0;" edge="1" parent="1" source="ckT-fIOzFa40TL3dtKwB-1" target="ckT-fIOzFa40TL3dtKwB-13">
          <mxGeometry relative="1" as="geometry" />
        </mxCell>
        <mxCell id="ckT-fIOzFa40TL3dtKwB-1" value="Alkalmazott" style="ellipse;html=1;" vertex="1" parent="1">
          <mxGeometry x="860" y="405" width="120" height="60" as="geometry" />
        </mxCell>
        <mxCell id="ckT-fIOzFa40TL3dtKwB-3" value="név" style="ellipse;whiteSpace=wrap;html=1;" vertex="1" parent="1">
          <mxGeometry x="800" y="515" width="120" height="60" as="geometry" />
        </mxCell>
        <mxCell id="ckT-fIOzFa40TL3dtKwB-4" value="műszak" style="ellipse;whiteSpace=wrap;html=1;" vertex="1" parent="1">
          <mxGeometry x="920" y="515" width="120" height="60" as="geometry" />
        </mxCell>
        <mxCell id="ckT-fIOzFa40TL3dtKwB-6" value="fizetés" style="ellipse;whiteSpace=wrap;html=1;" vertex="1" parent="1">
          <mxGeometry x="1040" y="515" width="120" height="60" as="geometry" />
        </mxCell>
        <mxCell id="ckT-fIOzFa40TL3dtKwB-13" value="&lt;u&gt;A ID&lt;/u&gt;" style="rhombus;whiteSpace=wrap;html=1;" vertex="1" parent="1">
          <mxGeometry x="720" y="505" width="80" height="80" as="geometry" />
        </mxCell>
        <mxCell id="ckT-fIOzFa40TL3dtKwB-21" style="rounded=0;orthogonalLoop=1;jettySize=auto;html=1;exitX=0;exitY=1;exitDx=0;exitDy=0;entryX=0.5;entryY=0;entryDx=0;entryDy=0;endArrow=none;endFill=0;" edge="1" parent="1" source="ckT-fIOzFa40TL3dtKwB-14" target="ckT-fIOzFa40TL3dtKwB-16">
          <mxGeometry relative="1" as="geometry" />
        </mxCell>
        <mxCell id="ckT-fIOzFa40TL3dtKwB-22" style="rounded=0;orthogonalLoop=1;jettySize=auto;html=1;exitX=1;exitY=1;exitDx=0;exitDy=0;entryX=0.5;entryY=0;entryDx=0;entryDy=0;endArrow=none;endFill=0;" edge="1" parent="1" source="ckT-fIOzFa40TL3dtKwB-14" target="ckT-fIOzFa40TL3dtKwB-17">
          <mxGeometry relative="1" as="geometry" />
        </mxCell>
        <mxCell id="ckT-fIOzFa40TL3dtKwB-23" style="rounded=0;orthogonalLoop=1;jettySize=auto;html=1;exitX=1;exitY=0.5;exitDx=0;exitDy=0;endArrow=none;endFill=0;" edge="1" parent="1" source="ckT-fIOzFa40TL3dtKwB-14" target="ckT-fIOzFa40TL3dtKwB-18">
          <mxGeometry relative="1" as="geometry" />
        </mxCell>
        <mxCell id="ckT-fIOzFa40TL3dtKwB-24" style="rounded=0;orthogonalLoop=1;jettySize=auto;html=1;exitX=0;exitY=0.5;exitDx=0;exitDy=0;entryX=0.5;entryY=0;entryDx=0;entryDy=0;endArrow=none;endFill=0;" edge="1" parent="1" source="ckT-fIOzFa40TL3dtKwB-14" target="ckT-fIOzFa40TL3dtKwB-15">
          <mxGeometry relative="1" as="geometry" />
        </mxCell>
        <mxCell id="ckT-fIOzFa40TL3dtKwB-14" value="Bár" style="ellipse;whiteSpace=wrap;html=1;" vertex="1" parent="1">
          <mxGeometry x="360" y="410" width="120" height="60" as="geometry" />
        </mxCell>
        <mxCell id="ckT-fIOzFa40TL3dtKwB-15" value="B ID" style="rhombus;whiteSpace=wrap;html=1;" vertex="1" parent="1">
          <mxGeometry x="220" y="510" width="80" height="80" as="geometry" />
        </mxCell>
        <mxCell id="ckT-fIOzFa40TL3dtKwB-16" value="név" style="ellipse;whiteSpace=wrap;html=1;" vertex="1" parent="1">
          <mxGeometry x="300" y="520" width="120" height="60" as="geometry" />
        </mxCell>
        <mxCell id="ckT-fIOzFa40TL3dtKwB-17" value="ital" style="ellipse;whiteSpace=wrap;html=1;" vertex="1" parent="1">
          <mxGeometry x="420" y="520" width="120" height="60" as="geometry" />
        </mxCell>
        <mxCell id="ckT-fIOzFa40TL3dtKwB-18" value="cég" style="ellipse;whiteSpace=wrap;html=1;" vertex="1" parent="1">
          <mxGeometry x="540" y="520" width="120" height="60" as="geometry" />
        </mxCell>
        <mxCell id="ckT-fIOzFa40TL3dtKwB-27" style="rounded=0;orthogonalLoop=1;jettySize=auto;html=1;exitX=0;exitY=1;exitDx=0;exitDy=0;endArrow=none;endFill=0;" edge="1" parent="1" source="ckT-fIOzFa40TL3dtKwB-31" target="ckT-fIOzFa40TL3dtKwB-32">
          <mxGeometry relative="1" as="geometry" />
        </mxCell>
        <mxCell id="ckT-fIOzFa40TL3dtKwB-28" style="rounded=0;orthogonalLoop=1;jettySize=auto;html=1;exitX=1;exitY=1;exitDx=0;exitDy=0;entryX=0.5;entryY=0;entryDx=0;entryDy=0;endArrow=none;endFill=0;" edge="1" parent="1" source="ckT-fIOzFa40TL3dtKwB-31" target="ckT-fIOzFa40TL3dtKwB-33">
          <mxGeometry relative="1" as="geometry" />
        </mxCell>
        <mxCell id="ckT-fIOzFa40TL3dtKwB-29" style="rounded=0;orthogonalLoop=1;jettySize=auto;html=1;exitX=1;exitY=0.5;exitDx=0;exitDy=0;entryX=0.5;entryY=0;entryDx=0;entryDy=0;endArrow=none;endFill=0;" edge="1" parent="1" source="ckT-fIOzFa40TL3dtKwB-31" target="ckT-fIOzFa40TL3dtKwB-34">
          <mxGeometry relative="1" as="geometry" />
        </mxCell>
        <mxCell id="ckT-fIOzFa40TL3dtKwB-30" style="rounded=0;orthogonalLoop=1;jettySize=auto;html=1;exitX=0;exitY=0.5;exitDx=0;exitDy=0;entryX=0.5;entryY=0;entryDx=0;entryDy=0;endArrow=none;endFill=0;" edge="1" parent="1" source="ckT-fIOzFa40TL3dtKwB-31" target="ckT-fIOzFa40TL3dtKwB-35">
          <mxGeometry relative="1" as="geometry" />
        </mxCell>
        <mxCell id="ckT-fIOzFa40TL3dtKwB-31" value="Fellépő" style="ellipse;html=1;" vertex="1" parent="1">
          <mxGeometry x="1331" y="405" width="120" height="60" as="geometry" />
        </mxCell>
        <mxCell id="ckT-fIOzFa40TL3dtKwB-32" value="név" style="ellipse;whiteSpace=wrap;html=1;" vertex="1" parent="1">
          <mxGeometry x="1270" y="515" width="120" height="60" as="geometry" />
        </mxCell>
        <mxCell id="ckT-fIOzFa40TL3dtKwB-33" value="ország" style="ellipse;whiteSpace=wrap;html=1;" vertex="1" parent="1">
          <mxGeometry x="1390" y="515" width="120" height="60" as="geometry" />
        </mxCell>
        <mxCell id="ckT-fIOzFa40TL3dtKwB-34" value="díj" style="ellipse;whiteSpace=wrap;html=1;" vertex="1" parent="1">
          <mxGeometry x="1510" y="515" width="120" height="60" as="geometry" />
        </mxCell>
        <mxCell id="ckT-fIOzFa40TL3dtKwB-35" value="&lt;u&gt;Fel ID&lt;/u&gt;" style="rhombus;whiteSpace=wrap;html=1;" vertex="1" parent="1">
          <mxGeometry x="1190" y="505" width="80" height="80" as="geometry" />
        </mxCell>
        <mxCell id="ckT-fIOzFa40TL3dtKwB-36" style="rounded=0;orthogonalLoop=1;jettySize=auto;html=1;exitX=0;exitY=1;exitDx=0;exitDy=0;endArrow=none;endFill=0;" edge="1" parent="1" source="ckT-fIOzFa40TL3dtKwB-40" target="ckT-fIOzFa40TL3dtKwB-41">
          <mxGeometry relative="1" as="geometry" />
        </mxCell>
        <mxCell id="ckT-fIOzFa40TL3dtKwB-37" style="rounded=0;orthogonalLoop=1;jettySize=auto;html=1;exitX=1;exitY=1;exitDx=0;exitDy=0;entryX=0.5;entryY=0;entryDx=0;entryDy=0;endArrow=none;endFill=0;" edge="1" parent="1" source="ckT-fIOzFa40TL3dtKwB-40" target="ckT-fIOzFa40TL3dtKwB-42">
          <mxGeometry relative="1" as="geometry" />
        </mxCell>
        <mxCell id="ckT-fIOzFa40TL3dtKwB-38" style="rounded=0;orthogonalLoop=1;jettySize=auto;html=1;exitX=1;exitY=0.5;exitDx=0;exitDy=0;entryX=0.5;entryY=0;entryDx=0;entryDy=0;endArrow=none;endFill=0;" edge="1" parent="1" source="ckT-fIOzFa40TL3dtKwB-40" target="ckT-fIOzFa40TL3dtKwB-43">
          <mxGeometry relative="1" as="geometry" />
        </mxCell>
        <mxCell id="ckT-fIOzFa40TL3dtKwB-39" style="rounded=0;orthogonalLoop=1;jettySize=auto;html=1;exitX=0;exitY=0.5;exitDx=0;exitDy=0;entryX=0.5;entryY=0;entryDx=0;entryDy=0;endArrow=none;endFill=0;" edge="1" parent="1" source="ckT-fIOzFa40TL3dtKwB-40" target="ckT-fIOzFa40TL3dtKwB-44">
          <mxGeometry relative="1" as="geometry" />
        </mxCell>
        <mxCell id="ckT-fIOzFa40TL3dtKwB-40" value="Fesztivál" style="ellipse;html=1;" vertex="1" parent="1">
          <mxGeometry x="1801" y="400" width="120" height="60" as="geometry" />
        </mxCell>
        <mxCell id="ckT-fIOzFa40TL3dtKwB-41" value="név" style="ellipse;whiteSpace=wrap;html=1;" vertex="1" parent="1">
          <mxGeometry x="1740" y="510" width="120" height="60" as="geometry" />
        </mxCell>
        <mxCell id="ckT-fIOzFa40TL3dtKwB-42" value="helyszín" style="ellipse;whiteSpace=wrap;html=1;" vertex="1" parent="1">
          <mxGeometry x="1860" y="510" width="120" height="60" as="geometry" />
        </mxCell>
        <mxCell id="ckT-fIOzFa40TL3dtKwB-43" value="év" style="ellipse;whiteSpace=wrap;html=1;" vertex="1" parent="1">
          <mxGeometry x="1980" y="510" width="120" height="60" as="geometry" />
        </mxCell>
        <mxCell id="ckT-fIOzFa40TL3dtKwB-44" value="&lt;u&gt;Fesz ID&lt;/u&gt;" style="rhombus;whiteSpace=wrap;html=1;" vertex="1" parent="1">
          <mxGeometry x="1660" y="500" width="80" height="80" as="geometry" />
        </mxCell>
        <mxCell id="ckT-fIOzFa40TL3dtKwB-45" style="rounded=0;orthogonalLoop=1;jettySize=auto;html=1;exitX=0;exitY=1;exitDx=0;exitDy=0;endArrow=none;endFill=0;" edge="1" parent="1" source="ckT-fIOzFa40TL3dtKwB-49" target="ckT-fIOzFa40TL3dtKwB-50">
          <mxGeometry relative="1" as="geometry" />
        </mxCell>
        <mxCell id="ckT-fIOzFa40TL3dtKwB-46" style="rounded=0;orthogonalLoop=1;jettySize=auto;html=1;exitX=1;exitY=1;exitDx=0;exitDy=0;entryX=0.5;entryY=0;entryDx=0;entryDy=0;endArrow=none;endFill=0;" edge="1" parent="1" source="ckT-fIOzFa40TL3dtKwB-49" target="ckT-fIOzFa40TL3dtKwB-51">
          <mxGeometry relative="1" as="geometry" />
        </mxCell>
        <mxCell id="ckT-fIOzFa40TL3dtKwB-47" style="rounded=0;orthogonalLoop=1;jettySize=auto;html=1;exitX=1;exitY=0.5;exitDx=0;exitDy=0;entryX=0.5;entryY=0;entryDx=0;entryDy=0;endArrow=none;endFill=0;" edge="1" parent="1" source="ckT-fIOzFa40TL3dtKwB-49" target="ckT-fIOzFa40TL3dtKwB-52">
          <mxGeometry relative="1" as="geometry" />
        </mxCell>
        <mxCell id="ckT-fIOzFa40TL3dtKwB-48" style="rounded=0;orthogonalLoop=1;jettySize=auto;html=1;exitX=0;exitY=0.5;exitDx=0;exitDy=0;entryX=0.5;entryY=0;entryDx=0;entryDy=0;endArrow=none;endFill=0;" edge="1" parent="1" source="ckT-fIOzFa40TL3dtKwB-49" target="ckT-fIOzFa40TL3dtKwB-53">
          <mxGeometry relative="1" as="geometry" />
        </mxCell>
        <mxCell id="ckT-fIOzFa40TL3dtKwB-49" value="Tulajdonos" style="ellipse;html=1;" vertex="1" parent="1">
          <mxGeometry x="2251" y="400" width="120" height="60" as="geometry" />
        </mxCell>
        <mxCell id="ckT-fIOzFa40TL3dtKwB-50" value="név" style="ellipse;whiteSpace=wrap;html=1;" vertex="1" parent="1">
          <mxGeometry x="2190" y="510" width="120" height="60" as="geometry" />
        </mxCell>
        <mxCell id="ckT-fIOzFa40TL3dtKwB-51" value="adószám" style="ellipse;whiteSpace=wrap;html=1;" vertex="1" parent="1">
          <mxGeometry x="2310" y="510" width="120" height="60" as="geometry" />
        </mxCell>
        <mxCell id="ckT-fIOzFa40TL3dtKwB-52" value="alapítás" style="ellipse;whiteSpace=wrap;html=1;" vertex="1" parent="1">
          <mxGeometry x="2430" y="510" width="120" height="60" as="geometry" />
        </mxCell>
        <mxCell id="ckT-fIOzFa40TL3dtKwB-53" value="&lt;u&gt;T ID&lt;/u&gt;" style="rhombus;whiteSpace=wrap;html=1;" vertex="1" parent="1">
          <mxGeometry x="2110" y="500" width="80" height="80" as="geometry" />
        </mxCell>
        <mxCell id="ckT-fIOzFa40TL3dtKwB-55" style="rounded=0;orthogonalLoop=1;jettySize=auto;html=1;exitX=0.5;exitY=0;exitDx=0;exitDy=0;entryX=1;entryY=0.5;entryDx=0;entryDy=0;endArrow=none;endFill=0;" edge="1" parent="1" source="ckT-fIOzFa40TL3dtKwB-54" target="ckT-fIOzFa40TL3dtKwB-49">
          <mxGeometry relative="1" as="geometry" />
        </mxCell>
        <mxCell id="ckT-fIOzFa40TL3dtKwB-54" value="bevétel" style="ellipse;whiteSpace=wrap;html=1;" vertex="1" parent="1">
          <mxGeometry x="2550" y="510" width="120" height="60" as="geometry" />
        </mxCell>
        <mxCell id="ckT-fIOzFa40TL3dtKwB-56" style="edgeStyle=orthogonalEdgeStyle;rounded=0;orthogonalLoop=1;jettySize=auto;html=1;exitX=0.5;exitY=1;exitDx=0;exitDy=0;" edge="1" parent="1" source="ckT-fIOzFa40TL3dtKwB-54" target="ckT-fIOzFa40TL3dtKwB-54">
          <mxGeometry relative="1" as="geometry" />
        </mxCell>
        <mxCell id="ckT-fIOzFa40TL3dtKwB-57" style="rounded=0;orthogonalLoop=1;jettySize=auto;html=1;exitX=0;exitY=1;exitDx=0;exitDy=0;endArrow=none;endFill=0;" edge="1" parent="1" source="ckT-fIOzFa40TL3dtKwB-61" target="ckT-fIOzFa40TL3dtKwB-62">
          <mxGeometry relative="1" as="geometry" />
        </mxCell>
        <mxCell id="ckT-fIOzFa40TL3dtKwB-58" style="rounded=0;orthogonalLoop=1;jettySize=auto;html=1;exitX=1;exitY=1;exitDx=0;exitDy=0;entryX=0.5;entryY=0;entryDx=0;entryDy=0;endArrow=none;endFill=0;" edge="1" parent="1" source="ckT-fIOzFa40TL3dtKwB-61" target="ckT-fIOzFa40TL3dtKwB-63">
          <mxGeometry relative="1" as="geometry" />
        </mxCell>
        <mxCell id="ckT-fIOzFa40TL3dtKwB-59" style="rounded=0;orthogonalLoop=1;jettySize=auto;html=1;exitX=1;exitY=0.5;exitDx=0;exitDy=0;entryX=0.5;entryY=0;entryDx=0;entryDy=0;endArrow=none;endFill=0;" edge="1" parent="1" source="ckT-fIOzFa40TL3dtKwB-61" target="ckT-fIOzFa40TL3dtKwB-64">
          <mxGeometry relative="1" as="geometry" />
        </mxCell>
        <mxCell id="ckT-fIOzFa40TL3dtKwB-60" style="rounded=0;orthogonalLoop=1;jettySize=auto;html=1;exitX=0;exitY=0.5;exitDx=0;exitDy=0;entryX=0.5;entryY=0;entryDx=0;entryDy=0;endArrow=none;endFill=0;" edge="1" parent="1" source="ckT-fIOzFa40TL3dtKwB-61" target="ckT-fIOzFa40TL3dtKwB-65">
          <mxGeometry relative="1" as="geometry" />
        </mxCell>
        <mxCell id="ckT-fIOzFa40TL3dtKwB-61" value="Résztvevő" style="ellipse;html=1;" vertex="1" parent="1">
          <mxGeometry x="2831" y="395" width="120" height="60" as="geometry" />
        </mxCell>
        <mxCell id="ckT-fIOzFa40TL3dtKwB-62" value="név" style="ellipse;whiteSpace=wrap;html=1;" vertex="1" parent="1">
          <mxGeometry x="2770" y="505" width="120" height="60" as="geometry" />
        </mxCell>
        <mxCell id="ckT-fIOzFa40TL3dtKwB-63" value="diákigazolvány" style="ellipse;whiteSpace=wrap;html=1;dashed=1;" vertex="1" parent="1">
          <mxGeometry x="2890" y="505" width="120" height="60" as="geometry" />
        </mxCell>
        <mxCell id="ckT-fIOzFa40TL3dtKwB-69" style="rounded=0;orthogonalLoop=1;jettySize=auto;html=1;exitX=0;exitY=1;exitDx=0;exitDy=0;entryX=0.5;entryY=0;entryDx=0;entryDy=0;endArrow=none;endFill=0;" edge="1" parent="1" source="ckT-fIOzFa40TL3dtKwB-64" target="ckT-fIOzFa40TL3dtKwB-66">
          <mxGeometry relative="1" as="geometry" />
        </mxCell>
        <mxCell id="ckT-fIOzFa40TL3dtKwB-70" style="rounded=0;orthogonalLoop=1;jettySize=auto;html=1;exitX=0.5;exitY=1;exitDx=0;exitDy=0;entryX=0.5;entryY=0;entryDx=0;entryDy=0;endArrow=none;endFill=0;" edge="1" parent="1" source="ckT-fIOzFa40TL3dtKwB-64" target="ckT-fIOzFa40TL3dtKwB-68">
          <mxGeometry relative="1" as="geometry" />
        </mxCell>
        <mxCell id="ckT-fIOzFa40TL3dtKwB-71" style="rounded=0;orthogonalLoop=1;jettySize=auto;html=1;exitX=1;exitY=1;exitDx=0;exitDy=0;entryX=0.5;entryY=0;entryDx=0;entryDy=0;endArrow=none;endFill=0;" edge="1" parent="1" source="ckT-fIOzFa40TL3dtKwB-64" target="ckT-fIOzFa40TL3dtKwB-67">
          <mxGeometry relative="1" as="geometry" />
        </mxCell>
        <mxCell id="ckT-fIOzFa40TL3dtKwB-64" value="lakcím" style="ellipse;whiteSpace=wrap;html=1;" vertex="1" parent="1">
          <mxGeometry x="3010" y="505" width="120" height="60" as="geometry" />
        </mxCell>
        <mxCell id="ckT-fIOzFa40TL3dtKwB-65" value="&lt;u&gt;R ID&lt;/u&gt;" style="rhombus;whiteSpace=wrap;html=1;" vertex="1" parent="1">
          <mxGeometry x="2690" y="495" width="80" height="80" as="geometry" />
        </mxCell>
        <mxCell id="ckT-fIOzFa40TL3dtKwB-66" value="település" style="ellipse;whiteSpace=wrap;html=1;" vertex="1" parent="1">
          <mxGeometry x="2890" y="610" width="120" height="60" as="geometry" />
        </mxCell>
        <mxCell id="ckT-fIOzFa40TL3dtKwB-67" value="házszám" style="ellipse;whiteSpace=wrap;html=1;" vertex="1" parent="1">
          <mxGeometry x="3130" y="610" width="120" height="60" as="geometry" />
        </mxCell>
        <mxCell id="ckT-fIOzFa40TL3dtKwB-68" value="utca" style="ellipse;whiteSpace=wrap;html=1;" vertex="1" parent="1">
          <mxGeometry x="3010" y="610" width="120" height="60" as="geometry" />
        </mxCell>
        <mxCell id="ckT-fIOzFa40TL3dtKwB-72" style="rounded=0;orthogonalLoop=1;jettySize=auto;html=1;exitX=0;exitY=1;exitDx=0;exitDy=0;endArrow=none;endFill=0;" edge="1" parent="1" source="ckT-fIOzFa40TL3dtKwB-76" target="ckT-fIOzFa40TL3dtKwB-77">
          <mxGeometry relative="1" as="geometry" />
        </mxCell>
        <mxCell id="ckT-fIOzFa40TL3dtKwB-73" style="rounded=0;orthogonalLoop=1;jettySize=auto;html=1;exitX=1;exitY=1;exitDx=0;exitDy=0;entryX=0.5;entryY=0;entryDx=0;entryDy=0;endArrow=none;endFill=0;" edge="1" parent="1" source="ckT-fIOzFa40TL3dtKwB-76" target="ckT-fIOzFa40TL3dtKwB-78">
          <mxGeometry relative="1" as="geometry" />
        </mxCell>
        <mxCell id="ckT-fIOzFa40TL3dtKwB-75" style="rounded=0;orthogonalLoop=1;jettySize=auto;html=1;exitX=0;exitY=0.5;exitDx=0;exitDy=0;entryX=0.5;entryY=0;entryDx=0;entryDy=0;endArrow=none;endFill=0;" edge="1" parent="1" source="ckT-fIOzFa40TL3dtKwB-76" target="ckT-fIOzFa40TL3dtKwB-80">
          <mxGeometry relative="1" as="geometry" />
        </mxCell>
        <mxCell id="ckT-fIOzFa40TL3dtKwB-76" value="Nyelvtudás" style="ellipse;html=1;" vertex="1" parent="1">
          <mxGeometry x="3391" y="400" width="120" height="60" as="geometry" />
        </mxCell>
        <mxCell id="ckT-fIOzFa40TL3dtKwB-77" value="nyelv" style="ellipse;whiteSpace=wrap;html=1;" vertex="1" parent="1">
          <mxGeometry x="3330" y="510" width="120" height="60" as="geometry" />
        </mxCell>
        <mxCell id="ckT-fIOzFa40TL3dtKwB-78" value="szint" style="ellipse;whiteSpace=wrap;html=1;" vertex="1" parent="1">
          <mxGeometry x="3450" y="510" width="120" height="60" as="geometry" />
        </mxCell>
        <mxCell id="ckT-fIOzFa40TL3dtKwB-80" value="&lt;u&gt;Ny ID&lt;/u&gt;" style="rhombus;whiteSpace=wrap;html=1;" vertex="1" parent="1">
          <mxGeometry x="3250" y="500" width="80" height="80" as="geometry" />
        </mxCell>
      </root>
    </mxGraphModel>
  </diagram>
</mxfile>
